<svg xmlns="http://www.w3.org/2000/svg" viewBox="0 0 1200 300">
  <defs>
    <linearGradient id="bgGrad" x1="0%" y1="0%" x2="100%" y2="100%">
      <stop offset="0%" stop-color="#070D1A"/>
      <stop offset="50%" stop-color="#0B1120"/>
      <stop offset="100%" stop-color="#0D1526"/>
    </linearGradient>
    <radialGradient id="glow" cx="50%" cy="50%" r="50%">
      <stop offset="0%" stop-color="#0ACDAA" stop-opacity="0.15"/>
      <stop offset="100%" stop-color="#0ACDAA" stop-opacity="0"/>
    </radialGradient>
  </defs>
  <!-- Background -->
  <rect width="1200" height="300" fill="url(#bgGrad)"/>
  <!-- Glow -->
  <ellipse cx="600" cy="150" rx="400" ry="150" fill="url(#glow)"/>
  <!-- Grid dots -->
  <g opacity="0.08" fill="#0ACDAA">
    <circle cx="100" cy="50" r="1.5"/><circle cx="150" cy="50" r="1.5"/><circle cx="200" cy="50" r="1.5"/><circle cx="250" cy="50" r="1.5"/><circle cx="300" cy="50" r="1.5"/>
    <circle cx="900" cy="50" r="1.5"/><circle cx="950" cy="50" r="1.5"/><circle cx="1000" cy="50" r="1.5"/><circle cx="1050" cy="50" r="1.5"/><circle cx="1100" cy="50" r="1.5"/>
    <circle cx="100" cy="250" r="1.5"/><circle cx="150" cy="250" r="1.5"/><circle cx="200" cy="250" r="1.5"/><circle cx="250" cy="250" r="1.5"/><circle cx="300" cy="250" r="1.5"/>
    <circle cx="900" cy="250" r="1.5"/><circle cx="950" cy="250" r="1.5"/><circle cx="1000" cy="250" r="1.5"/><circle cx="1050" cy="250" r="1.5"/><circle cx="1100" cy="250" r="1.5"/>
    <circle cx="100" cy="100" r="1"/><circle cx="150" cy="100" r="1"/><circle cx="200" cy="100" r="1"/><circle cx="250" cy="100" r="1"/><circle cx="300" cy="100" r="1"/>
    <circle cx="900" cy="100" r="1"/><circle cx="950" cy="100" r="1"/><circle cx="1000" cy="100" r="1"/><circle cx="1050" cy="100" r="1"/><circle cx="1100" cy="100" r="1"/>
    <circle cx="100" cy="200" r="1"/><circle cx="150" cy="200" r="1"/><circle cx="200" cy="200" r="1"/><circle cx="250" cy="200" r="1"/><circle cx="300" cy="200" r="1"/>
    <circle cx="900" cy="200" r="1"/><circle cx="950" cy="200" r="1"/><circle cx="1000" cy="200" r="1"/><circle cx="1050" cy="200" r="1"/><circle cx="1100" cy="200" r="1"/>
  </g>
  <!-- Icon badge -->
  <rect x="430" y="60" width="90" height="90" rx="22" fill="#0ACDAA"/>
  <line x1="449" y1="80" x2="458" y2="80" stroke="white" stroke-width="3.5" stroke-linecap="round"/>
  <line x1="449" y1="80" x2="449" y2="130" stroke="white" stroke-width="3.5" stroke-linecap="round"/>
  <line x1="449" y1="130" x2="458" y2="130" stroke="white" stroke-width="3.5" stroke-linecap="round"/>
  <line x1="501" y1="80" x2="492" y2="80" stroke="white" stroke-width="3.5" stroke-linecap="round"/>
  <line x1="501" y1="80" x2="501" y2="130" stroke="white" stroke-width="3.5" stroke-linecap="round"/>
  <line x1="501" y1="130" x2="492" y2="130" stroke="white" stroke-width="3.5" stroke-linecap="round"/>
  <line x1="460" y1="96" x2="490" y2="96" stroke="white" stroke-width="3" stroke-linecap="round"/>
  <line x1="460" y1="105" x2="490" y2="105" stroke="white" stroke-width="3" stroke-linecap="round"/>
  <line x1="460" y1="114" x2="490" y2="114" stroke="white" stroke-width="3" stroke-linecap="round"/>
  <!-- Title -->
  <text x="540" y="120" font-family="system-ui, -apple-system, 'Segoe UI', sans-serif" font-weight="800" font-size="56" fill="#E2E8F0" letter-spacing="-1">infra</text>
  <text x="702" y="120" font-family="system-ui, -apple-system, 'Segoe UI', sans-serif" font-weight="800" font-size="56" fill="#0ACDAA" letter-spacing="-1">wrap</text>
  <!-- Tagline -->
  <text x="600" y="190" font-family="system-ui, -apple-system, 'Segoe UI', sans-serif" font-weight="400" font-size="18" fill="#8896B3" text-anchor="middle" letter-spacing="3">AUTONOMOUS INFRASTRUCTURE AGENT</text>
  <!-- Feature badges -->
  <text x="600" y="240" font-family="system-ui, -apple-system, 'Segoe UI', sans-serif" font-weight="500" font-size="13" fill="#4A5A7A" text-anchor="middle" letter-spacing="1">AI-POWERED  ·  SELF-HEALING  ·  CHAOS ENGINEERING  ·  NATURAL LANGUAGE OPS</text>
</svg>
